<?xml version="1.0" encoding="UTF-8" standalone="no"?>
<svg
   version="1.1"
   id="Layer_1"
   x="0px"
   y="0px"
   width="499.99994"
   viewBox="0 0 499.99994 499.99997"
   enable-background="new 0 0 500 500"
   xml:space="preserve"
   height="499.99997"
   xmlns="http://www.w3.org/2000/svg"
   xmlns:svg="http://www.w3.org/2000/svg"><defs
   id="defs3"><clipPath
     clipPathUnits="userSpaceOnUse"
     id="clipPath12"><path
       id="path12"
       style="fill:#ff0000;fill-opacity:1;fill-rule:nonzero;stroke:none"
       d="m 1,1 v 180.69141 c 0.2775685,-0.0361 0.5545203,-0.0741 0.8300781,-0.11914 1.879202,1.22445 3.8842791,2.2764 5.6386719,3.67382 0.3226914,0.25703 0.2946529,0.77034 0.4296875,1.16016 0.4970507,1.4349 0.8777769,2.90674 1.3496094,4.34961 0.6971939,2.40008 1.5315531,4.7587 2.2753911,7.14453 0.791097,2.56568 1.627044,5.11678 2.316406,7.71289 0.950427,2.88653 2.014566,5.73031 3.517578,8.38281 1.584283,2.80652 3.252241,5.54669 5.279297,8.0625 1.975543,2.66066 3.911697,5.35096 5.849609,8.03907 1.790701,2.51292 3.486058,5.09255 5.332031,7.5664 1.597313,2.20266 3.526429,4.12508 5.226563,6.2461 2.017551,2.42768 4.133201,4.77959 5.947266,7.36914 2.231908,3.08587 4.166913,6.36403 6.203124,9.58008 2.298829,3.63223 4.664437,7.22987 6.578126,11.08789 1.844113,3.5733 3.720254,7.1267 5.851562,10.53906 2.103335,3.73884 4.126747,7.52364 6.353516,11.1914 1.972078,3.30821 3.929267,6.62599 5.912109,9.92774 1.793501,2.89683 3.477914,5.86108 5.369141,8.69726 1.735993,2.61823 3.620091,5.13993 5.164062,7.88282 1.541117,2.70078 3.010165,5.4402 4.441406,8.20117 1.579198,3.22192 3.087597,6.54026 3.195313,10.19336 -0.01349,4.34178 -0.755627,7.83616 -4.404297,10.60937 -2.039921,1.35579 -4.182434,2.51119 -6.675781,2.72657 -3.251238,0.3213 -6.510617,0.0721 -9.769531,-0.0332 -4.019742,-0.17993 -8.039616,-0.40304 -12.041016,-0.83984 -4.544853,-0.3604 -9.07741,-0.8345 -13.595703,-1.44727 -4.830323,-0.64101 -9.646926,-1.40838 -14.527344,-1.57812 -4.202539,-0.38935 -8.412562,-0.94458 -12.642578,-0.70313 -3.784681,0.12686 -7.565077,0.38298 -11.3515626,0.42578 C 6.3685509,347.76703 3.6842903,347.80168 1,347.82617 V 501 H 501 V 1 Z m 0,200.09375 v 135.73633 c 2.6478217,-0.024 5.2956033,-0.0575 7.9433594,-0.084 3.6996926,-0.048 7.3935396,-0.29734 11.0917966,-0.42187 4.69248,-0.26876 9.363017,0.31299 14.025391,0.74414 5.02368,0.18002 9.983829,0.9707 14.957031,1.62695 4.327311,0.58706 8.668625,1.04266 13.021484,1.38672 3.87606,0.42451 7.76811,0.64296 11.66211,0.81641 2.660962,-0.0813 5.394962,0.49538 8.042969,0.0898 0.738868,-0.0675 1.175242,-0.51221 1.783203,-0.92773 0.01196,-0.0251 0.05025,-0.074 0.06055,-0.0977 v -0.002 c 1.07e-4,-4.3e-4 0.0015,-0.003 0.002,-0.004 v -0.002 -0.002 -0.002 h -0.002 v -0.002 h -0.002 -0.002 c -9.97e-4,1.7e-4 -0.0046,0.002 -0.0059,0.002 -0.117336,0.034 -0.195506,0.15775 -0.314453,0.18555 -0.169791,0.0397 -0.179549,-0.7931 -0.199219,-1.47656 -0.253089,-1.92492 -1.20144,-3.68623 -2.058594,-5.40235 -1.335581,-2.56444 -2.698064,-5.1122 -4.130859,-7.62304 -1.437049,-2.51415 -3.165551,-4.83664 -4.769531,-7.24219 -1.964234,-2.92841 -3.701504,-5.99849 -5.560547,-8.99219 -2.018419,-3.3548 -4.006806,-6.7289 -6.011719,-10.0918 -2.275725,-3.74575 -4.343369,-7.61283 -6.492187,-11.43164 -2.195794,-3.52667 -4.134273,-7.19503 -6.039063,-10.88476 -1.769128,-3.56987 -3.970476,-6.8922 -6.097656,-10.25196 -1.936706,-2.99695 -3.693128,-6.11235 -5.804688,-8.99218 -1.680478,-2.39214 -3.640293,-4.56332 -5.507812,-6.80664 -1.879632,-2.25159 -3.868643,-4.39848 -5.623047,-6.75196 -1.886064,-2.51431 -3.600804,-5.14851 -5.429688,-7.70312 -1.898743,-2.63146 -3.794677,-5.26472 -5.730468,-7.86914 -2.294673,-2.88318 -4.2140357,-6.01007 -6.0253909,-9.21094 -1.8579872,-3.27204 -3.1979985,-6.77626 -4.3828125,-10.33594 -0.721354,-2.66321 -1.5659921,-5.28547 -2.3828125,-7.91992 -0.00585,-0.0186 -0.011719,-0.0381 -0.017578,-0.0566 z" /></clipPath></defs>
<path
   fill="#ffffff"
   opacity="1"
   stroke="none"
   d="m 226,501 c -75.33331,0 -150.166634,0 -224.99996,0 -1.3e-5,-166.66659 -1.3e-5,-333.33322 -2.7e-5,-499.99987 166.666547,-4.4e-5 333.333117,-4.4e-5 499.999747,-8.7e-5 9e-5,166.666487 9e-5,333.333027 1.8e-4,499.999777 C 409.5,501 318,501 226,501 M 159.54334,211.08531 c -8.67403,20.26439 -10.26713,41.32805 -5.29912,62.54924 11.88264,50.75763 60.59242,85.55628 116.4542,74.96436 66.28602,-12.56836 100.59818,-86.08533 68.52537,-145.45815 -19.74796,-36.55728 -59.53138,-58.29426 -103.57206,-51.10255 -35.33258,5.7697 -60.47546,25.97491 -76.10839,59.0471 z"
   id="path1"
   clip-path="url(#clipPath12)"
   transform="translate(-1.000013,-1.000043)"
   style="fill:none" />


<g
   id="g36"
   transform="translate(-0.35318246,-0.0297972)"><g
     id="g31"
     transform="translate(-1.4210042,-0.58557696)"><path
       fill="#ffaa01"
       opacity="1"
       stroke="none"
       d="m 159.71365,210.74535 c 15.46262,-32.73223 40.6055,-52.93744 75.93808,-58.70714 44.04068,-7.19171 83.8241,14.54527 103.57206,51.10255 32.07281,59.37282 -2.23935,132.88979 -68.52537,145.45815 -55.86178,10.59192 -104.57156,-24.20673 -116.4542,-74.96436 -4.96801,-21.22119 -3.37491,-42.28485 5.46943,-62.8892 m 120.16962,6.85632 c -9.38895,-16.24384 -18.77789,-32.48767 -28.52069,-49.34372 -23.84496,41.3383 -47.36696,82.11671 -71.03439,123.14726 47.85148,0 94.68176,0 142.11749,0 -14.30704,-24.77484 -28.27374,-48.96034 -42.56241,-73.80354 z"
       id="path2" /><path
       fill="#02377f"
       opacity="1"
       stroke="none"
       d="m 280.04425,217.93053 c 14.12769,24.51434 28.09439,48.69984 42.40143,73.47468 -47.43573,0 -94.26601,0 -142.11749,0 23.66743,-41.03055 47.18943,-81.80896 71.03439,-123.14726 9.7428,16.85605 19.13174,33.09988 28.68167,49.67258 z"
       id="path3" /></g><ellipse
     style="fill:none;fill-opacity:0;stroke:#000000;stroke-width:0.470207;stroke-dasharray:none;stroke-opacity:1"
     id="path24"
     cx="-287.95367"
     cy="-205.14061"
     rx="112.69458"
     ry="110.42519"
     transform="rotate(-170.46639)" /><ellipse
     style="fill:none;fill-opacity:0;stroke:#000000;stroke-width:0.723615;stroke-dasharray:none;stroke-opacity:1"
     id="ellipse34"
     cx="-287.95367"
     cy="-205.14062"
     rx="173.42912"
     ry="169.93668"
     transform="rotate(-170.46639)" /><g
     id="text35"
     style="opacity:1"><path
       style="font-weight:bold;font-size:36px;font-family:Dubai;-inkscape-font-specification:'Dubai, Bold';baseline-shift:baseline;display:inline;overflow:visible;vector-effect:none;enable-background:accumulate;stop-color:#000000;stop-opacity:1"
       d="m 130.80453,284.85618 q 1.03222,3.59889 0.26875,6.55183 -0.77339,2.91832 -3.03612,4.95301 -2.29734,2.04462 -5.79242,3.04706 -3.87574,1.11162 -6.91773,0.29879 -3.0766,-0.8029 -5.05683,-3.00635 -2.02477,-2.22813 -2.92796,-5.37716 -1.03221,-3.5989 -0.25882,-6.51722 0.76347,-2.95294 3.07073,-4.96295 2.26273,-2.03469 5.75781,-3.03713 3.87574,-1.11162 6.95234,-0.30872 3.03206,0.77823 5.05683,3.00635 1.98023,2.20345 2.88342,5.35249 z m -4.01415,1.15132 q -0.58559,-2.04169 -1.89224,-3.20243 -1.35119,-1.18542 -3.24533,-1.39118 -1.93867,-0.23044 -4.25719,0.43454 -3.6681,1.05207 -5.26315,3.19487 -1.62966,2.15273 -0.77609,5.12874 0.89326,3.11443 3.40143,4.15527 2.47356,1.05076 6.00325,0.0384 3.6681,-1.05207 5.29776,-3.2048 1.59505,-2.1428 0.73156,-5.15341 z m -24.01107,-22.49086 q -0.41557,-6.03371 2.01209,-9.55684 2.39174,-3.52066 8.74868,-3.95849 3.87881,-0.26716 6.62181,1.3121 2.743,1.57926 4.20286,4.4377 1.45738,2.82254 1.6998,6.3422 l 0.52193,7.57804 -23.27286,1.60291 z m 18.96546,-0.22368 q -0.20284,-2.94502 -0.89869,-4.66527 -0.73176,-1.71778 -2.37385,-2.50682 -1.6421,-0.78903 -4.55121,-0.58867 -2.69362,0.18552 -4.21698,1.12041 -1.52584,0.89896 -2.09938,2.52622 -0.60946,1.62973 -0.44373,4.03603 l 0.18305,2.6577 14.50963,-0.99934 z m -6.7487,-32.9679 q 0.57863,-1.45194 1.55985,-2.34625 0.94991,-0.93445 2.07919,-1.26632 1.13371,-0.36759 2.31272,-0.22175 3.25122,0.40219 4.75474,2.90975 1.4678,2.50313 0.94186,6.75472 l -1.12259,9.07483 -23.15153,-2.86393 1.04746,-8.46746 q 0.34031,-2.75103 1.36056,-4.54737 0.98894,-1.83648 2.50165,-2.62876 1.47699,-0.7967 3.33482,-0.56688 1.53629,0.19005 2.74773,1.24677 1.1757,1.0523 1.63354,2.92265 z m -7.99667,7.46272 5.39488,0.66737 0.34915,-2.82249 q 0.48616,-3.93004 -2.33632,-4.2792 -1.25047,-0.15468 -2.00406,0.65895 -0.7849,0.7735 -0.99262,2.4527 z m 15.51904,-1.70767 q 0.2696,-2.17939 -0.4015,-3.20554 -0.70682,-1.03058 -2.06447,-1.19852 -1.32193,-0.16353 -2.22727,0.70389 -0.90534,0.86741 -1.14842,2.83243 l -0.45964,3.71568 5.85934,0.72482 z m 9.76334,-22.37119 q -1.17746,3.55403 -3.4734,5.56185 -2.28462,1.97365 -5.3007,2.37762 -3.05025,0.39264 -6.50176,-0.75085 -3.82742,-1.26804 -5.88094,-3.65497 -2.0877,-2.39825 -2.48014,-5.33466 -0.41528,-2.98191 0.61499,-6.09168 1.17746,-3.55403 3.46208,-5.52768 2.29594,-2.00782 5.33487,-2.36629 3.01608,-0.40396 6.46759,0.73953 3.82742,1.26803 5.91512,3.66628 2.06484,2.35276 2.48013,5.33467 0.39243,2.93641 -0.63784,6.04618 z m -3.96411,-1.31332 q 0.66798,-2.01623 0.24366,-3.7117 -0.44717,-1.74097 -1.89523,-2.9792 -1.47091,-1.28372 -3.76053,-2.04228 -3.62237,-1.2001 -6.14808,-0.33028 -2.55988,0.8585 -3.53355,3.79741 -1.01895,3.0756 0.46516,5.34973 1.44993,2.26281 4.93562,3.41762 3.62237,1.2001 6.18225,0.34161 2.52571,-0.86982 3.5107,-3.84291 z m 17.95463,-29.81818 0.25089,0.14141 -2.77528,4.92371 -10.24723,0.8774 -0.95456,1.6935 7.40125,4.17176 -2.51013,4.45329 -20.32206,-11.45466 3.8359,-6.80538 q 1.52021,-2.69707 3.37455,-4.00738 1.84066,-1.35935 3.77823,-1.42432 1.90621,-0.0827 3.72516,0.94261 2.13256,1.20203 3.0996,3.15216 0.93569,1.93245 0.52168,4.42654 z m -17.08183,5.74459 1.0783,-1.91304 q 1.06061,-1.88167 0.90497,-3.2918 -0.13797,-1.44149 -1.80011,-2.37837 -1.44262,-0.81314 -2.67656,-0.31023 -1.23394,0.5029 -2.15314,2.13369 l -1.34345,2.38345 z m 22.5099,-30.78259 15.41514,1.19525 0.2093,0.19782 -4.27801,4.52622 -14.58044,-1.39704 8.39835,7.93781 -3.51143,3.71516 -16.95369,-16.02399 3.51143,-3.71516 7.84893,7.41852 -1.69156,-13.93313 3.95654,-4.18609 0.2093,0.19783 z m 32.71002,-11.56976 0.17109,0.23167 -4.5465,3.35774 -9.70964,-3.39094 -1.56376,1.15489 5.0473,6.83423 -4.11212,3.03694 -13.85871,-18.76517 6.28402,-4.64096 q 2.49044,-1.83927 4.71852,-2.27644 2.23566,-0.48752 4.0303,0.24574 1.77325,0.70431 3.01369,2.38391 1.45431,1.96918 1.53906,4.14427 0.0634,2.14612 -1.33461,4.25266 z m -17.93721,-1.74521 1.76647,-1.3046 q 1.73752,-1.28321 2.17229,-2.63364 0.46374,-1.37182 -0.66977,-2.90662 -0.98379,-1.3321 -2.31549,-1.37793 -1.3317,-0.0458 -2.83755,1.0663 l -2.20085,1.6254 z m 21.01378,0.67472 -11.39873,-20.35349 4.46017,-2.49787 11.39873,20.35349 z m -11.79958,-22.02702 -2.49023,-1.20482 3.19483,-7.48326 4.00423,2.21367 z m 27.64659,-11.04244 0.93099,2.26406 -4.33695,19.64983 10.18827,-4.18944 1.65661,4.0287 -16.78068,6.90025 -0.93099,-2.26406 4.43684,-19.6909 -10.08839,4.14837 -1.15718,-4.23406 z m 22.37707,18.82798 q -3.66113,0.78338 -6.55486,-0.18049 -2.85852,-0.97139 -4.73351,-3.36813 -1.88251,-2.43194 -2.6433,-5.98746 -0.84364,-3.94275 0.17557,-6.92195 1.01167,-3.0144 3.34553,-4.83912 2.36154,-1.86745 5.56503,-2.55291 3.66112,-0.78338 6.51965,0.18802 2.89372,0.96386 4.74104,3.40334 1.87498,2.39673 2.63577,5.95225 0.84363,3.94275 -0.16804,6.95716 -0.984,2.97166 -3.34553,4.83911 -2.33387,1.82472 -5.53735,2.51018 z m -0.87377,-4.08357 q 2.07698,-0.44441 3.32447,-1.66853 1.27515,-1.26685 1.61012,-3.14245 0.36265,-1.91834 -0.14203,-4.27695 -0.79845,-3.73154 -2.827,-5.46956 -2.0361,-1.77323 -5.06357,-1.12543 -3.16828,0.67792 -4.37841,3.10894 -1.21766,2.39581 -0.44935,5.98653 0.79844,3.73153 2.83454,5.50476 2.02855,1.73802 5.09123,1.08269 z m 30.39917,-22.55939 5.21916,-0.0937 0.005,0.28795 -8.11702,23.18945 -5.65109,0.10146 -8.98022,-22.88248 -0.005,-0.28795 5.39913,-0.0969 6.40937,18.06786 z m 14.33501,20.44127 10.52806,1.64629 -0.64517,4.12587 -15.57869,-2.43607 3.60405,-23.04792 15.40084,2.40826 -0.6396,4.09029 -10.35023,-1.61848 -0.81202,5.1929 8.92751,1.39601 -1.20313,3.96573 -8.35842,-1.30702 z m 4.10391,-20.41913 -1.21459,-2.48548 7.13416,-3.912795 1.78237,4.213955 z m 32.41586,10.24017 4.82077,1.70079 -7.76136,21.99902 -4.82077,-1.7008 3.22192,-9.1323 -9.94709,-3.50939 -3.22192,9.13231 -4.82077,-1.70079 7.76136,-21.99902 4.82077,1.70079 -3.10215,8.79282 9.94709,3.50938 z m 10.38076,31.79692 q -3.19053,-1.9591 -4.62003,-4.6534 -1.39882,-2.67545 -1.10226,-5.70398 0.31539,-3.05921 2.21797,-6.1577 2.1098,-3.43596 4.90312,-4.88913 2.81217,-1.48386 5.7605,-1.1943 2.99785,0.27771 5.78956,1.99192 3.19053,1.9591 4.58935,4.63456 1.4295,2.69429 1.08343,5.73466 -0.29656,3.02853 -2.19914,6.12702 -2.10979,3.43596 -4.92196,4.91981 -2.76265,1.47202 -5.7605,1.1943 -2.94833,-0.28956 -5.74004,-2.00376 z m 2.18514,-3.55867 q 1.81001,1.11141 3.55759,1.08611 1.7971,-0.0371 3.3337,-1.16362 1.58611,-1.13832 2.84822,-3.19376 1.99677,-3.25188 1.72766,-5.90958 -0.25027,-2.68838 -2.88859,-4.3084 -2.76104,-1.69537 -5.31432,-0.77072 -2.53445,0.89398 -4.45587,4.02315 -1.99677,3.25188 -1.7465,5.94026 0.26911,2.6577 2.93811,4.29656 z m 30.17262,30.53845 -0.20939,0.19774 -3.88055,-4.10931 2.19764,-10.04719 -1.33471,-1.4134 -6.17706,5.83319 -3.50979,-3.71671 16.96072,-16.01653 5.36356,5.67975 q 2.12566,2.25096 2.82782,4.41023 0.75306,2.16073 0.24113,4.03057 -0.48576,1.84513 -2.00385,3.27871 -1.77983,1.68075 -3.9289,2.02668 -2.1229,0.32121 -4.38238,-0.81306 z m -0.4264,-18.01686 1.50773,1.59661 q 1.48301,1.57044 2.87596,1.83951 1.41765,0.29526 2.80487,-1.01474 1.204,-1.13697 1.08922,-2.46451 -0.11479,-1.32753 -1.40007,-2.68858 l -1.87848,-1.98922 z m 1.83258,20.9643 18.92702,-13.63685 2.98832,4.14758 -18.92702,13.63685 z m 32.64971,8.6828 -16.53895,18.10147 -0.25528,0.13333 -2.51663,-4.81837 4.07936,-4.2426 -3.99995,-7.65833 -5.79599,0.9559 -2.4833,-4.75455 0.25528,-0.13333 24.3055,-3.23154 z m -14.96041,0.8281 2.73329,5.23319 6.49839,-6.76511 z m 23.70323,21.40133 q 1.66517,5.81425 0.0259,9.76632 -1.60464,3.94216 -7.73037,5.69653 -3.73774,1.07047 -6.74984,0.0982 -3.01211,-0.97227 -5.03617,-3.46327 -2.01415,-2.45639 -2.9855,-5.84803 l -2.09137,-7.30243 22.4264,-6.42278 z m -18.5015,4.1753 q 0.81276,2.83791 1.85218,4.37515 1.07402,1.52732 2.84459,1.95642 1.77057,0.4291 4.57387,-0.37375 2.59565,-0.74337 3.89046,-1.97549 1.30472,-1.1975 1.52617,-2.90861 0.25606,-1.72101 -0.40802,-4.03979 l -0.73347,-2.56104 -13.98189,4.00433 z m 4.64355,23.15681 1.00255,10.60874 -4.15748,0.39289 -1.48349,-15.69806 23.22452,-2.19476 1.46656,15.51886 -4.12163,0.3895 -0.98561,-10.42953 -5.23269,0.49449 0.85013,8.99592 -4.13999,-0.18733 -0.79594,-8.42247 z m 18.28618,38.01074 -23.22288,-2.21206 0.5257,-5.51902 11.51599,-6.24414 q 1.52227,-0.79524 2.62301,-1.34132 1.13658,-0.54267 2.52061,-1.02561 l -15.69695,-1.49519 0.4745,-4.98145 23.22289,2.21206 -0.5223,5.48318 -12.65256,6.78682 q -0.22868,0.12286 -1.06491,0.54949 -0.80038,0.43004 -1.51885,0.7594 -0.72188,0.36519 -1.39427,0.59045 l 15.66111,1.49178 z m -24.65639,2.74894 22.64183,5.61631 -1.23073,4.96164 -22.64184,-5.61631 z m 14.55746,30.45673 -24.50553,-0.82409 -0.26716,-0.10757 2.03027,-5.04263 5.87537,0.34752 3.22692,-8.01478 -4.49049,-3.78719 2.00338,-4.97584 0.26716,0.10757 18.23993,16.38612 z m -10.34404,-10.83976 -2.20506,5.47677 9.36451,0.54925 z"
       id="path35" /><path
       style="font-weight:bold;font-size:36px;font-family:Dubai;-inkscape-font-specification:'Dubai, Bold';baseline-shift:baseline;display:inline;overflow:visible;vector-effect:none;enable-background:accumulate;stop-color:#000000;stop-opacity:1"
       d="m 279.70508,97.322266 -7.54102,4.134764 1.39258,2.84766 L 281.68359,102 Z m -0.21875,0.632812 1.58594,3.751952 -7.27735,2.0625 -1.03711,-2.125 z m -18.81055,5.736332 -5.60547,0.10156 -5.56836,17.79492 -6.23828,-17.58398 -5.78515,0.10547 0.01,0.55273 9.05274,23.06641 5.96289,-0.10743 8.18164,-23.375 z m -0.44141,0.45898 v 0.0215 l -8.05078,23.0039 -5.33789,0.0957 -8.9082,-22.69921 -0.002,-0.0215 5.01367,-0.0898 6.58008,18.55078 5.87304,-18.77344 z m 7.0586,0.33594 -3.67383,23.49414 16.02344,2.5039 0.71484,-4.57031 -10.5293,-1.64453 0.80274,-5.14062 8.33008,1.30273 1.33593,-4.40039 -8.96093,-1.40234 0.74218,-4.74805 10.34961,1.61914 0.70899,-4.53516 z m 0.375,0.51562 14.95508,2.33789 -0.56836,3.64454 -10.35157,-1.61719 -0.88085,5.63672 8.89453,1.39257 -1.07227,3.5293 -8.38672,-1.31055 -0.94336,6.02735 10.52735,1.64648 -0.57422,3.68164 -15.13477,-2.36523 z m -43.33399,1.23633 c -1.10704,-0.032 -2.28009,0.0852 -3.51562,0.34961 -2.16489,0.46323 -4.05385,1.3289 -5.65625,2.5957 -1.59084,1.2438 -2.73323,2.89922 -3.41992,4.94532 -0.6949,2.03248 -0.75216,4.38186 -0.1836,7.03906 0.51295,2.39721 1.40704,4.42646 2.68555,6.07812 v 0.002 h 0.002 c 1.2751,1.62991 2.89303,2.78049 4.83789,3.4414 v 0.002 h 0.002 c 1.97348,0.65734 4.2008,0.71428 6.67187,0.18554 2.16467,-0.46318 4.04441,-1.3139 5.62891,-2.55273 h 0.002 c 1.60752,-1.27119 2.74943,-2.9254 3.41797,-4.94336 v -0.002 c 0.6893,-2.05513 0.74434,-4.41702 0.17578,-7.07422 -0.51259,-2.39557 -1.40497,-4.41289 -2.67773,-6.04102 -1.25707,-1.66002 -2.87814,-2.8264 -4.84766,-3.48242 v 0.002 c -0.97542,-0.33147 -2.016,-0.51294 -3.12305,-0.54492 z m -0.0156,0.44922 c 1.06617,0.0307 2.06387,0.20536 2.99414,0.52148 h 0.002 c 1.88877,0.62913 3.42679,1.73356 4.63282,3.32618 v 0.002 h 0.002 c 1.22582,1.56692 2.09035,3.51785 2.5918,5.86133 0.55611,2.59903 0.49887,4.87422 -0.16016,6.83789 v 0.002 c -0.64354,1.94347 -1.73075,3.51404 -3.27149,4.73242 -1.52733,1.19414 -3.33867,2.01603 -5.44531,2.4668 -2.40967,0.5156 -4.55115,0.45343 -6.43554,-0.17383 h -0.002 c -1.86527,-0.63421 -3.40062,-1.72832 -4.625,-3.29297 -1.2315,-1.59092 -2.10012,-3.553 -2.60156,-5.89648 -0.55612,-2.59903 -0.49551,-4.8614 0.16797,-6.80078 v -0.002 c 0.6622,-1.9731 1.75051,-3.5452 3.27148,-4.73437 1.54604,-1.22257 3.36682,-2.05917 5.47266,-2.50977 1.20521,-0.25788 2.34007,-0.37054 3.40625,-0.33984 z m 66.86719,2.0918 -7.91016,22.42382 5.24414,1.84961 3.22266,-9.13281 9.52343,3.36133 -3.22265,9.13281 5.24414,1.84961 7.91211,-22.42383 -5.2461,-1.84961 -3.10156,8.79297 -9.52344,-3.36132 3.10352,-8.79102 z m 0.27539,0.57422 4.39648,1.55273 -3.10156,8.79102 10.37109,3.66015 3.10157,-8.79492 4.39648,1.55078 -7.61328,21.57813 -4.39453,-1.55274 3.2207,-9.13281 -10.37109,-3.6582 -3.22266,9.13281 -4.39648,-1.55274 z m -66.89258,1.27929 c -0.87976,-0.19588 -1.84221,-0.18234 -2.87695,0.0391 -2.16027,0.46223 -3.69331,1.54517 -4.53125,3.22851 -0.84028,1.65444 -0.98802,3.706 -0.46875,6.13281 0.53895,2.51882 1.50089,4.40303 2.90625,5.62696 l 0.002,0.002 c 1.40546,1.20417 3.19363,1.58034 5.28516,1.13281 1.41697,-0.30319 2.56709,-0.87825 3.43359,-1.72851 h 0.002 v -0.002 c 0.8825,-0.87675 1.44337,-1.9713 1.67383,-3.26172 l -0.002,0.002 c 0.24843,-1.31415 0.19879,-2.76984 -0.14258,-4.36524 -0.53871,-2.51764 -1.49781,-4.39077 -2.89844,-5.59179 -0.70464,-0.61367 -1.50305,-1.01897 -2.38281,-1.21485 z m -0.0996,0.43164 c 0.8081,0.17927 1.53279,0.55261 2.18555,1.1211 l 0.002,0.002 c 1.30303,1.11641 2.22827,2.88914 2.75391,5.3457 0.33153,1.54942 0.37572,2.94387 0.14062,4.1875 v 0.002 c -0.21607,1.20982 -0.72984,2.2093 -1.54687,3.02148 -0.79682,0.78189 -1.86056,1.32002 -3.21289,1.60938 -1.99099,0.42601 -3.59759,0.0805 -4.89649,-1.03125 l -0.002,-0.002 c -1.30841,-1.14046 -2.23635,-2.92552 -2.76172,-5.38086 -0.50498,-2.36002 -0.35286,-4.29819 0.42969,-5.83789 h 0.002 v -0.002 c 0.77556,-1.55802 2.1605,-2.54662 4.22461,-2.98828 0.98357,-0.21046 1.87354,-0.22614 2.68164,-0.0469 z m -21.01172,0.47071 -16.47461,6.77539 1.27735,4.66992 9.92382,-4.08008 -4.35742,19.33789 1.04297,2.53906 17.19727,-7.07226 -1.82813,-4.44531 -9.99609,4.11132 4.25781,-19.29687 z m -0.24609,0.58789 0.81836,1.99023 -4.41407,20.00195 10.37891,-4.26757 1.48438,3.61328 -16.36329,6.72851 -0.81836,-1.99023 4.51563,-20.04297 -10.25195,4.21484 -1.03907,-3.79687 z m -26.92774,1.74414 -3.37695,7.91015 2.85156,1.37891 4.97071,-6.83203 z m 0.21875,0.63476 3.5625,1.96875 -4.44726,6.11719 -2.12891,-1.0293 z m 4.13282,7.24024 -4.85352,2.71679 11.61914,20.7461 4.85352,-2.7168 z m -0.17383,0.61133 11.17968,19.96093 -4.0664,2.2793 -11.17969,-19.96094 z m 143.1914,0.89843 c -2.00968,-0.19737 -3.97789,0.21155 -5.88672,1.21875 -1.90548,0.99167 -3.56826,2.65493 -4.99023,4.97071 -1.28276,2.08907 -2.0358,4.17427 -2.25,6.25195 v 0.002 c -0.20168,2.05957 0.17523,4.00977 1.12695,5.83008 0.9749,1.83748 2.54773,3.41794 4.70118,4.74023 1.88642,1.15833 3.83427,1.83858 5.83593,2.03516 h 0.002 v 0.002 c 2.04124,0.1891 4.00996,-0.22071 5.88671,-1.2207 1.91764,-1.01184 3.58552,-2.68368 5.00782,-5 1.28276,-2.08907 2.03089,-4.1646 2.23242,-6.22266 l -0.002,0.002 c 0.23542,-2.06829 -0.13514,-4.02998 -1.10743,-5.86328 v -0.002 c -0.9547,-1.82532 -2.51701,-3.39873 -4.66992,-4.7207 -1.88712,-1.15876 -3.8522,-1.83497 -5.88672,-2.02344 z m -0.043,0.44727 h 0.002 c 1.96261,0.18181 3.85625,0.83213 5.6914,1.95898 2.1006,1.28984 3.59737,2.80745 4.50782,4.54883 0.93305,1.7586 1.28452,3.61861 1.05859,5.60352 v 0.002 0.002 c -0.19388,1.97998 -0.91201,3.98901 -2.16602,6.03125 -1.39075,2.26496 -3.00401,3.87127 -4.83593,4.83789 v 0.002 c -1.80617,0.96237 -3.67765,1.34871 -5.63282,1.16797 -1.92944,-0.1895 -3.80867,-0.84343 -5.64453,-1.97071 -2.10005,-1.28951 -3.6079,-2.81205 -4.53906,-4.5664 v -0.002 c -0.91272,-1.74646 -1.2718,-3.59833 -1.07812,-5.57617 0.20657,-2.00067 0.93387,-4.02088 2.1875,-6.0625 1.39076,-2.26496 2.99607,-3.86066 4.81445,-4.80664 h 0.002 c 1.84074,-0.97127 3.71139,-1.35863 5.63281,-1.16992 z m 0.94727,4.06641 c -0.92084,-0.13318 -1.82694,-0.0428 -2.71094,0.27734 -1.75047,0.61745 -3.27323,2.00162 -4.57226,4.11719 -1.34784,2.19505 -1.95204,4.2245 -1.7793,6.08007 l 0.002,0.002 c 0.18645,1.84136 1.2203,3.34565 3.04297,4.46484 1.23484,0.75824 2.46583,1.13672 3.67969,1.11914 1.24286,-0.0257 2.40435,-0.43109 3.46094,-1.20508 l 0.002,-0.002 c 1.08572,-0.7797 2.05308,-1.86836 2.90625,-3.25781 1.34739,-2.19432 1.94513,-4.21092 1.75977,-6.04688 -0.17323,-1.86075 -1.19067,-3.37307 -2.99414,-4.48047 -0.9413,-0.57798 -1.87604,-0.93518 -2.79688,-1.06835 z m -0.0586,0.43945 c 0.85059,0.12373 1.71974,0.46141 2.61914,1.01367 1.71429,1.05263 2.62273,2.41297 2.7832,4.13672 v 0.002 c 0.17286,1.70716 -0.38079,3.62875 -1.69531,5.76953 -0.82911,1.35026 -1.75886,2.39095 -2.78711,3.12891 h -0.002 c -0.99162,0.72698 -2.05268,1.0973 -3.20508,1.12109 -1.11625,0.0162 -2.25704,-0.32909 -3.43555,-1.05273 -1.73534,-1.06556 -2.65917,-2.42561 -2.83203,-4.12695 v -0.002 c -0.16039,-1.72846 0.40079,-3.65879 1.71484,-5.79883 1.26287,-2.05666 2.7091,-3.35516 4.33789,-3.92968 h 0.002 c 0.81819,-0.2963 1.6494,-0.38546 2.5,-0.26172 z m -155.51758,2.90039 c -0.69354,-0.0424 -1.42225,0.0199 -2.1836,0.18555 -1.52834,0.29987 -3.12935,1.07623 -4.80859,2.3164 l -6.46484,4.77344 14.12695,19.12891 4.47266,-3.30469 -5.04688,-6.83399 1.28711,-0.95117 9.70899,3.39063 4.82421,-3.5625 -0.34765,-0.46875 -10.14649,-3.375 c 0.84136,-1.35349 1.28728,-2.73108 1.2461,-4.125 v -0.002 c -0.0583,-1.49745 -0.59022,-2.92658 -1.58203,-4.26953 -0.84811,-1.14836 -1.88955,-1.97335 -3.11133,-2.45898 h -0.002 c -0.62092,-0.25347 -1.27853,-0.40097 -1.97265,-0.44336 z m -0.0293,0.44726 c 0.64866,0.0395 1.259,0.17718 1.83399,0.41211 l 0.002,0.002 c 1.14187,0.45353 2.11056,1.21798 2.91601,2.30859 0.94727,1.28262 1.44145,2.61686 1.4961,4.01953 0.0403,1.37913 -0.38563,2.74606 -1.29688,4.11914 l -0.16406,0.24414 10.52344,3.5 -4.26563,3.14844 -9.70898,-3.39062 -1.83984,1.35937 5.04687,6.83398 -3.75,2.77149 -13.5918,-18.4043 6.10352,-4.50781 c 1.64135,-1.21219 3.18648,-1.95331 4.62891,-2.23633 h 0.002 0.002 c 0.72763,-0.15867 1.41384,-0.21917 2.0625,-0.17969 z m -1.51758,4.22461 c -0.95323,-0.0328 -1.94793,0.34827 -2.97851,1.10938 l -2.38086,1.75976 4.35156,5.89258 1.94727,-1.4375 c 1.1805,-0.87183 1.94119,-1.78129 2.25195,-2.74414 0.33512,-0.99135 0.0822,-2.05056 -0.70117,-3.11133 -0.68395,-0.9261 -1.52945,-1.43568 -2.49024,-1.46875 z m -0.0137,0.44922 c 0.81482,0.028 1.51286,0.43708 2.14063,1.28711 0.72793,0.98564 0.92187,1.86343 0.63867,2.70117 l -0.002,0.002 c -0.26943,0.83684 -0.95658,1.68309 -2.0918,2.52148 l -1.58399,1.17188 -3.82031,-5.16797 2.02149,-1.49414 c 0.97721,-0.7217 1.87489,-1.04977 2.69726,-1.02149 z m -17.4043,6.73047 -4.18359,4.42578 1.63086,13.41992 -7.56055,-7.14453 -3.82031,4.04102 17.2793,16.33398 3.82226,-4.04297 -8.08789,-7.64257 14.03907,1.3457 4.50781,-4.76953 -0.42969,-0.40821 -15.30859,-1.1875 -1.45508,-13.96093 z m 202.86915,0.50586 -17.28711,16.32617 3.81836,4.04297 6.17773,-5.83203 1.09766,1.16211 -2.19727,10.04883 4.11719,4.35937 0.42383,-0.40234 2.1289,-10.47852 c 1.44474,0.67214 2.86742,0.94884 4.2461,0.74024 h 0.002 c 1.47954,-0.23816 2.83306,-0.93969 4.04687,-2.08594 1.03771,-0.97994 1.73128,-2.11181 2.06641,-3.38281 0.35454,-1.29495 0.26975,-2.68957 -0.24414,-4.16407 v 0.006 c -0.48165,-1.48114 -1.44368,-2.97833 -2.87695,-4.49609 z m -202.86329,0.14258 1.47461,14.14453 15.50196,1.20117 -4.03907,4.27344 -14.92382,-1.42969 -1.73047,-14.25586 z m 202.84571,0.49414 5.20898,5.51562 c 1.40094,1.48352 2.32278,2.9283 2.77735,4.32618 l 0.002,0.002 v 0.002 c 0.49019,1.40648 0.56436,2.69832 0.23633,3.89649 v 0.002 0.002 c -0.3128,1.18816 -0.95567,2.24102 -1.94141,3.17188 -1.15878,1.09427 -2.42343,1.74343 -3.80859,1.96679 -1.36486,0.20652 -2.77264,-0.0513 -4.2461,-0.79101 l -0.26367,-0.13281 -2.20703,10.86914 -3.64063,-3.85547 2.19922,-10.04688 -1.57226,-1.66406 -6.17578,5.83399 -3.20118,-3.39063 z m 0.54492,5.89844 -5.32617,5.02929 1.66211,1.75977 c 1.00841,1.06786 2.00202,1.71423 2.99609,1.90625 1.02316,0.21159 2.04441,-0.16802 3.00195,-1.07227 0.83705,-0.79044 1.24297,-1.6887 1.16016,-2.64648 -0.0822,-0.95025 -0.58131,-1.89273 -1.46094,-2.82422 z m -0.0195,0.63672 1.72461,1.82421 c 0.83408,0.88325 1.26896,1.7349 1.33984,2.55469 0.0702,0.81227 -0.25124,1.55574 -1.01953,2.28125 -0.89086,0.84127 -1.73974,1.13734 -2.60547,0.95703 h -0.002 c -0.8632,-0.16674 -1.78693,-0.74738 -2.75586,-1.77343 l -1.35352,-1.43165 z m -213.47266,3.6582 7.91602,7.48242 0.22265,0.21094 8.48828,8.02148 -3.20312,3.38867 -16.62695,-15.71484 z m 229.29492,7.75781 -19.29297,13.89844 3.25196,4.51367 19.29101,-13.90039 z m -0.10351,0.62695 2.72656,3.78321 -18.5625,13.37304 -2.72656,-3.78125 z m -241.01758,12.24414 c -1.34119,0.0454 -2.64686,0.54156 -3.90234,1.46875 -1.27028,0.89884 -2.41166,2.26159 -3.43555,4.07813 l -3.94727,7 20.71485,11.67578 2.73047,-4.8457 -7.40039,-4.16992 0.78515,-1.39454 10.2461,-0.87695 2.94531,-5.22461 -0.50977,-0.28711 -10.63867,1.07227 c 0.21396,-1.57898 0.0569,-3.02042 -0.55078,-4.27539 v -0.002 c -0.66576,-1.34257 -1.73703,-2.42827 -3.19141,-3.24804 -1.24356,-0.70097 -2.5303,-1.02731 -3.84375,-0.97071 z m 0.0176,0.44922 h 0.002 c 1.22748,-0.0533 2.42438,0.24831 3.60547,0.91407 1.38904,0.78294 2.38419,1.79904 3.00781,3.05664 0.60092,1.24201 0.77182,2.66334 0.50196,4.28906 l -0.0488,0.29101 11.03515,-1.11328 -2.60547,4.61914 -10.24609,0.87891 -1.12305,1.99219 7.40039,4.17383 -2.28906,4.05859 -19.92968,-11.23438 3.7246,-6.60742 c 1.00192,-1.77753 2.10812,-3.08727 3.3086,-3.93554 h 0.002 l 0.002,-0.002 c 1.19814,-0.88483 2.41078,-1.33922 3.65235,-1.38086 z m 251.95117,3.42188 -24.50195,3.25586 -0.49024,0.25586 2.66406,5.09961 5.79493,-0.95703 3.84961,7.37109 -4.07813,4.24219 2.69531,5.16211 0.49024,-0.25586 16.67187,-18.24805 z m -0.25391,0.48633 2.80274,5.36914 -16.4043,17.95508 -0.0195,0.0117 -2.33789,-4.47461 4.07812,-4.24414 -4.15039,-7.94531 -5.79492,0.95508 -2.30469,-4.41016 0.0215,-0.0117 z m -251.80273,0.7539 c -0.48134,-0.0553 -0.9494,0.006 -1.39453,0.1875 -0.88326,0.35998 -1.63458,1.11438 -2.26367,2.23047 l -1.45313,2.58008 6.38086,3.59766 1.18945,-2.10938 c 0.72119,-1.27949 1.04272,-2.4214 0.93164,-3.42773 -0.10116,-1.03972 -0.76496,-1.90223 -1.91211,-2.54883 -0.50146,-0.28266 -0.99717,-0.45443 -1.47851,-0.50977 z m -0.0449,0.44336 c 0.41084,0.0481 0.84245,0.19955 1.30273,0.45899 1.06741,0.60165 1.60129,1.32283 1.68555,2.20312 v 0.002 0.002 c 0.0965,0.87384 -0.184,1.92685 -0.87695,3.15625 l -0.96875,1.71679 -5.59571,-3.15429 1.23242,-2.18946 c 0.59652,-1.05829 1.27903,-1.7246 2.04102,-2.03515 0.3775,-0.15386 0.76884,-0.20823 1.17969,-0.16016 z m 249.82812,3.16992 -10.20703,1.69532 3.02149,5.78515 z m -1.26367,0.66602 -5.8125,6.05078 -2.44336,-4.67969 z m -255.31836,13.36914 c -1.09497,-0.12518 -2.15489,-0.11968 -3.17969,0.0176 -2.06635,0.24449 -3.89143,1.05421 -5.45312,2.41992 -1.55917,1.34694 -2.73262,3.22816 -3.52734,5.62695 -0.69644,2.10213 -0.90684,4.16966 -0.625,6.19336 0.26771,2.00029 1.11724,3.82219 2.5332,5.44922 1.40124,1.62875 3.40025,2.86782 5.98047,3.72266 2.32708,0.77097 4.52997,1.02643 6.60156,0.75976 2.0511,-0.27472 3.86357,-1.08686 5.41797,-2.42968 l 0.002,-0.002 c 1.5658,-1.3693 2.74434,-3.26136 3.53906,-5.66015 0.69618,-2.10135 0.91291,-4.15292 0.64649,-6.14649 v -0.002 c -0.28277,-2.03039 -1.13049,-3.85287 -2.53321,-5.45117 -1.42361,-1.63538 -3.43345,-2.87759 -6.01367,-3.73242 -1.16354,-0.38549 -2.2937,-0.64045 -3.38867,-0.76563 z m -0.0508,0.44727 c 1.06089,0.12132 2.15941,0.36925 3.29688,0.74609 2.523,0.83588 4.45642,2.03928 5.8164,3.60156 1.35041,1.53871 2.15679,3.27131 2.42774,5.2168 0.25681,1.92164 0.0486,3.9003 -0.62891,5.94531 -0.77522,2.33992 -1.91275,4.15511 -3.4082,5.46289 -1.49128,1.28762 -3.21223,2.06044 -5.18164,2.32422 -1.99541,0.25686 -4.12742,0.0115 -6.40235,-0.74219 -2.52301,-0.83588 -4.44446,-2.03406 -5.78125,-3.58789 -1.36652,-1.5698 -2.17198,-3.30314 -2.42773,-5.21679 v -0.002 c -0.27188,-1.95218 -0.0718,-3.946 0.60547,-5.99023 0.77522,-2.33992 1.90949,-4.14314 3.39648,-5.42774 v -0.002 c 1.49859,-1.31053 3.23088,-2.07652 5.21484,-2.31055 v -0.002 h 0.002 c 0.98592,-0.13205 2.00942,-0.13695 3.07031,-0.0156 z m 268.48633,1.03125 -22.85938,6.54687 2.15235,7.51758 c 0.65467,2.2859 1.66448,4.26502 3.02734,5.92773 1.37479,1.69195 3.09507,2.8762 5.14258,3.53711 2.05693,0.66396 4.35632,0.62536 6.88086,-0.0976 4.12045,-1.18007 6.77133,-3.11756 7.875,-5.82618 1.11814,-2.69568 1.10358,-6.00613 -0.0156,-9.91406 z m -0.3086,0.55664 2.07813,7.25781 c 1.10102,3.84441 1.10271,7.0454 0.0352,9.61914 h -0.002 v 0.002 c -1.03646,2.5463 -3.53805,4.40573 -7.58398,5.56446 -2.45912,0.70427 -4.65799,0.73201 -6.61719,0.0996 -1.96864,-0.63546 -3.60768,-1.76124 -4.93164,-3.39063 -1.32182,-1.61204 -2.30317,-3.53223 -2.94336,-5.76758 l -2.0293,-7.08594 z m -269.76562,3.03906 c -1.04923,-0.0562 -2.01215,0.0628 -2.88477,0.36328 -1.77094,0.59448 -3.00846,1.93113 -3.67382,3.93945 -0.69477,2.09708 -0.53743,3.96827 0.49023,5.54297 1.00143,1.56286 2.69809,2.72903 5.05469,3.50977 2.44513,0.81008 4.55733,0.93239 6.32422,0.33984 h 0.002 c 1.74991,-0.60265 2.97773,-1.95403 3.65039,-3.98437 0.45571,-1.37553 0.54278,-2.66023 0.24805,-3.83789 v -0.002 c -0.30925,-1.20399 -0.9698,-2.24024 -1.96485,-3.09179 -1.00764,-0.87941 -2.28916,-1.57284 -3.83789,-2.08594 -1.22257,-0.40504 -2.35897,-0.63713 -3.4082,-0.69336 z m -0.0215,0.44922 c 1.00013,0.0539 2.09476,0.27685 3.2871,0.67187 1.5041,0.49832 2.73002,1.16583 3.6836,1.99805 h 0.002 c 0.93448,0.79907 1.53747,1.74882 1.82422,2.86523 0.27048,1.08247 0.19444,2.27195 -0.24023,3.58399 -0.64067,1.93378 -1.75145,3.14406 -3.36914,3.70117 -1.64597,0.55145 -3.65521,0.44798 -6.03907,-0.3418 -2.29099,-0.759 -3.88459,-1.87195 -4.8164,-3.32617 l -0.002,-0.002 c -0.95115,-1.45747 -1.10329,-3.15057 -0.43945,-5.1543 0.63266,-1.9096 1.74927,-3.10579 3.39063,-3.65625 h 0.002 c 0.81118,-0.27936 1.71666,-0.39371 2.7168,-0.33984 z m 267.27929,2.07812 -14.41406,4.12891 0.49805,1.73828 c 0.54587,1.90601 1.16912,3.38395 1.88281,4.43945 v 0.002 l 0.002,0.002 c 0.74378,1.05769 1.74692,1.74692 2.97656,2.04492 1.23802,0.30004 2.79638,0.16661 4.6875,-0.375 1.75068,-0.50138 3.07929,-1.17106 3.98047,-2.02734 0.90351,-0.82926 1.443,-1.85275 1.59766,-3.04102 v -0.004 c 0.17627,-1.18914 0.0344,-2.56495 -0.41406,-4.13086 z m -0.30859,0.55664 0.67187,2.34571 c 0.43656,1.52433 0.56672,2.83857 0.40235,3.94336 v 0.002 0.002 c -0.14127,1.09159 -0.61993,2.00692 -1.45508,2.77344 h -0.002 l -0.002,0.002 c -0.82518,0.78524 -2.08855,1.43263 -3.79687,1.92188 -1.84662,0.52886 -3.33624,0.64319 -4.45899,0.37109 -1.12972,-0.27379 -2.02302,-0.88664 -2.71093,-1.86328 l -0.002,-0.004 c -0.67146,-0.99404 -1.283,-2.43051 -1.82031,-4.30664 l -0.375,-1.30664 z m -275.875,20.0918 c -1.2772,-0.15799 -2.44144,0.0396 -3.46875,0.59375 -1.0517,0.55152 -1.91703,1.46329 -2.5918,2.71484 -2.7e-4,4.8e-4 2.7e-4,0.001 0,0.002 -4.6e-4,8.5e-4 -0.001,0.001 -0.002,0.002 -0.69817,1.23057 -1.15547,2.77332 -1.38477,4.62695 l -1.07617,8.69141 23.59766,2.91797 1.15039,-9.29688 c 0.35442,-2.86504 0.0419,-5.16966 -0.97071,-6.89648 v -0.002 c -1.0364,-1.72851 -2.70204,-2.74298 -4.92187,-3.01758 -0.81627,-0.10097 -1.61962,-0.0234 -2.4043,0.23047 -0.78896,0.23234 -1.51398,0.67594 -2.16797,1.31836 -0.56993,0.52025 -0.98182,1.24853 -1.35156,2.02929 -0.32954,-1.06548 -0.81841,-1.96632 -1.53906,-2.61133 l -0.002,-0.002 c -0.8381,-0.73106 -1.79972,-1.16873 -2.86719,-1.30078 z m -0.0547,0.44727 c 0.98092,0.12134 1.8498,0.51545 2.62695,1.19336 0.74427,0.66691 1.26578,1.59448 1.5625,2.80664 l 0.16797,0.68359 0.25977,-0.6543 c 0.37544,-0.94208 0.87633,-1.69347 1.50195,-2.26367 l 0.004,-0.002 0.002,-0.004 c 0.61099,-0.60104 1.27191,-1.00098 1.98633,-1.21094 h 0.002 l 0.004,-0.002 c 0.72573,-0.23531 1.46041,-0.30426 2.21484,-0.21094 2.11404,0.26152 3.61954,1.18547 4.58789,2.79883 0.94449,1.61069 1.2609,3.80954 0.91407,6.61328 l -1.09571,8.85157 -22.70508,-2.8086 1.01954,-8.24414 c 0.22424,-1.81275 0.67287,-3.29888 1.33398,-4.46289 v -0.002 l 0.002,-0.004 c 0.64299,-1.19405 1.44518,-2.03077 2.40821,-2.53516 l 0.002,-0.002 c 0.94201,-0.50813 2.00127,-0.68945 3.20117,-0.54101 z m 285.9707,0.73046 -23.67187,2.23633 1.52539,16.14649 4.60547,-0.43555 -1.00196,-10.60937 5.17969,-0.48829 0.79297,8.39258 4.59375,0.20899 -0.85351,-9.03125 4.78515,-0.45118 0.98438,10.42969 4.57031,-0.43164 z m -0.40429,0.49024 1.42382,15.07031 -3.67382,0.34766 -0.98633,-10.42969 -5.67969,0.53711 0.84766,8.96289 -3.6875,-0.16797 -0.79883,-8.45117 -6.07422,0.57422 1.00195,10.60937 -3.70898,0.34961 -1.44141,-15.25 z m -285.71875,3.53125 c -0.88412,-0.10936 -1.64242,0.13537 -2.19141,0.72461 -0.57256,0.5659 -0.91466,1.43427 -1.05664,2.58203 l -0.43945,3.54687 5.84179,0.72266 0.37696,-3.04687 c 0.16536,-1.33675 0.0562,-2.39435 -0.36719,-3.16993 -0.42344,-0.77557 -1.17142,-1.23657 -2.16406,-1.35937 z m 9.64453,0.32226 c -0.9356,-0.11573 -1.762,0.14266 -2.41016,0.76368 -0.65758,0.63003 -1.05106,1.62896 -1.21679,2.96875 l -0.48633,3.9375 6.30468,0.78125 0.47071,-3.79688 c 0.18305,-1.47977 0.0574,-2.59875 -0.4375,-3.35547 v -0.002 l -0.002,-0.002 c -0.50599,-0.73777 -1.26662,-1.17667 -2.22265,-1.29493 z m -9.70117,0.12305 c 0.889,0.10998 1.47084,0.47809 1.82617,1.12891 0.35533,0.65082 0.4732,1.6171 0.31445,2.90039 l -0.32031,2.59961 -4.94922,-0.61328 0.38281,-3.09961 c 0.13476,-1.08938 0.45538,-1.85482 0.92774,-2.32032 l 0.004,-0.002 0.004,-0.004 c 0.4554,-0.49169 1.03007,-0.68639 1.81055,-0.58985 z m 9.64648,0.32227 c 0.85202,0.10539 1.46611,0.46626 1.90234,1.09961 0.39991,0.61148 0.5436,1.6286 0.36719,3.05468 l -0.41406,3.34961 -5.41211,-0.66992 0.43164,-3.49219 c 0.15837,-1.28024 0.53054,-2.17075 1.08008,-2.69726 0.55896,-0.53555 1.21795,-0.74683 2.04492,-0.64453 z m 254.56836,17.29297 -0.51758,5.42968 15.00781,1.42969 c -0.57816,0.22373 -1.17475,0.44353 -1.68164,0.68555 l -0.002,0.002 h -0.002 c -0.73579,0.36503 -1.61112,0.81307 -2.62696,1.34375 h -0.002 l -11.62305,6.30274 -0.55859,5.86132 23.67188,2.25586 0.51367,-5.39453 -15.00196,-1.42773 c 0.19546,-0.0856 0.38351,-0.14485 0.58399,-0.2461 l 0.008,-0.004 c 0.4805,-0.22049 0.98656,-0.4735 1.51953,-0.75977 l 0.004,-0.002 c 0.55438,-0.28285 0.90749,-0.46646 1.06445,-0.55078 l 12.75781,-6.84375 0.55664,-5.82617 z m 0.40625,0.49218 22.77344,2.16797 -0.48828,5.14063 -12.54688,6.72851 c -0.14738,0.0792 -0.50345,0.26461 -1.06055,0.54883 h -0.002 l -0.002,0.002 c -0.52996,0.28475 -1.03183,0.53465 -1.50586,0.75196 l -0.004,0.002 -0.004,0.002 c -0.47278,0.23917 -0.92871,0.43189 -1.36524,0.57813 l 0.0508,0.4375 15.4375,1.4707 -0.42968,4.49805 -22.77344,-2.16992 0.49219,-5.17578 11.4082,-6.18555 0.002,-0.002 c 1.01179,-0.52855 1.88247,-0.97336 2.61328,-1.33594 l 0.002,-0.002 c 0.74854,-0.35728 1.58093,-0.69433 2.49609,-1.01367 l -0.0527,-0.4375 -15.47266,-1.47265 z m -261.47461,0.0937 c -4.27727,0.2946 -7.2758,1.63648 -8.91992,4.05664 -1.65518,2.40297 -2.33004,5.64264 -2.05078,9.69727 l 0.55078,7.98242 23.7207,-1.63281 -0.53711,-7.80274 c -0.16345,-2.37316 -0.73786,-4.51863 -1.72461,-6.42968 -0.99157,-1.94152 -2.42643,-3.45578 -4.29101,-4.5293 -1.87317,-1.07846 -4.12823,-1.52224 -6.74805,-1.3418 z m 0.0293,0.44922 c 2.55192,-0.17577 4.70997,0.25403 6.49414,1.28125 1.79275,1.03217 3.16032,2.47597 4.11523,4.34571 0.95643,1.85233 1.51601,3.93614 1.67578,6.25585 l 0.50586,7.35352 -22.82226,1.57227 -0.51953,-7.53321 c -0.27478,-3.98951 0.39167,-7.11966 1.97265,-9.41406 v -0.002 c 1.54486,-2.27405 4.37948,-3.5702 8.57813,-3.85938 z m 0.35156,5.08203 c -1.81869,0.12526 -3.26001,0.50163 -4.32031,1.15235 -1.05439,0.62229 -1.7927,1.51048 -2.19141,2.63867 -0.42137,1.12678 -0.57101,2.50432 -0.45898,4.13086 l 0.19922,2.88281 14.95898,-1.03125 -0.125,-1.80469 c -0.13623,-1.97794 -0.43628,-3.55321 -0.91406,-4.73437 v -0.002 l -0.002,-0.002 c -0.50675,-1.18959 -1.342,-2.07311 -2.48242,-2.62109 -1.14818,-0.55171 -2.70156,-0.74454 -4.66406,-0.60938 z m 0.0293,0.44727 c 1.91631,-0.13198 3.39817,0.068 4.43945,0.56836 1.0482,0.50367 1.79272,1.29122 2.26172,2.39062 0.4497,1.1124 0.74865,2.64581 0.88281,4.59375 l 0.0937,1.35547 -14.06055,0.96875 -0.16796,-2.43359 c -0.10895,-1.58187 0.0384,-2.89522 0.42968,-3.94141 l 0.002,-0.002 v -0.002 c 0.36588,-1.0381 1.02526,-1.83278 2.00195,-2.40821 h 0.002 l 0.002,-0.002 c 0.97084,-0.59581 2.34048,-0.96579 4.11328,-1.08789 z m 257.30078,18.97656 -1.33985,5.39844 23.08008,5.72461 1.33789,-5.39844 z m 0.32812,0.54492 22.20508,5.50782 -1.12109,4.52539 -22.20508,-5.50782 z m -251.98632,0.67188 c -1.17896,0.0523 -2.42212,0.26593 -3.72852,0.64062 -2.35546,0.67558 -4.3064,1.70219 -5.84375,3.08399 -1.57005,1.36778 -2.62099,3.06634 -3.14063,5.07617 -0.52726,1.99117 -0.43671,4.20644 0.25977,6.63477 0.61053,2.12866 1.60439,3.95465 2.97852,5.46679 1.34979,1.50195 3.0777,2.52728 5.16601,3.07227 2.07573,0.55464 4.42432,0.45056 7.03711,-0.29883 2.35646,-0.67587 4.32061,-1.70709 5.88086,-3.0957 1.53878,-1.3837 2.57732,-3.0789 3.10352,-5.06446 0.52067,-2.01386 0.42716,-4.24085 -0.26954,-6.66992 -0.6103,-2.12788 -1.58918,-3.94545 -2.93359,-5.4414 v -0.002 c -1.37827,-1.51668 -3.10704,-2.54345 -5.16601,-3.07226 h -0.002 c -1.04844,-0.27341 -2.16352,-0.38235 -3.34179,-0.33008 z m 0.0195,0.44922 c 1.13849,-0.0506 2.20689,0.0549 3.20898,0.3164 h 0.002 c 1.98297,0.50897 3.6243,1.48576 4.94532,2.93946 1.2959,1.44198 2.24003,3.19283 2.83398,5.26367 0.6796,2.36945 0.76486,4.5102 0.26758,6.43359 -0.50514,1.90476 -1.49102,3.513 -2.96875,4.8418 -1.50287,1.33755 -3.39948,2.33733 -5.70313,2.99805 -2.55486,0.73277 -4.81857,0.82796 -6.79882,0.29882 v -0.002 c -2.01382,-0.52554 -3.65676,-1.50151 -4.94727,-2.9375 v -0.002 c -1.32556,-1.4587 -2.28519,-3.21707 -2.87891,-5.28711 -0.67959,-2.36946 -0.76119,-4.49899 -0.25781,-6.39844 0.49833,-1.92742 1.49566,-3.53737 3.00195,-4.84961 v -0.002 l 0.002,-0.002 c 1.47932,-1.33024 3.36628,-2.32757 5.66992,-2.98829 1.27743,-0.36638 2.48455,-0.57244 3.62305,-0.62304 z m 2.08007,4.79101 0.002,0.002 c -1.32808,-0.15787 -2.77743,-0.008 -4.34571,0.4414 -2.47538,0.70998 -4.27862,1.79531 -5.38085,3.27539 -1.12797,1.49001 -1.39598,3.29187 -0.8125,5.32617 0.60888,2.12294 1.79335,3.57985 3.52929,4.30079 1.70842,0.72573 3.766,0.73131 6.15235,0.0469 2.476,-0.71016 4.29118,-1.79929 5.41601,-3.28516 l 0.002,-0.002 c 1.10512,-1.48462 1.35531,-3.29364 0.76563,-5.34961 -0.39951,-1.39289 -1.05139,-2.50235 -1.95898,-3.30859 -0.93513,-0.8204 -2.06598,-1.3057 -3.36915,-1.44727 z m -0.0508,0.44727 h 0.002 c 1.22235,0.13278 2.25463,0.57773 3.12109,1.33789 0.83358,0.74127 1.44324,1.76741 1.82422,3.0957 0.56143,1.95746 0.32535,3.58295 -0.69531,4.95508 -1.04806,1.38445 -2.7649,2.4324 -5.17969,3.125 -2.31991,0.66538 -4.26386,0.64599 -5.85352,-0.0293 v -0.002 h -0.002 c -1.60747,-0.66707 -2.68953,-1.98074 -3.27148,-4.00977 -0.55462,-1.9337 -0.30468,-3.54938 0.74023,-4.92968 v -0.002 c 1.02457,-1.37641 2.72974,-2.42068 5.14453,-3.11328 1.52308,-0.43684 2.91311,-0.57712 4.16992,-0.42773 z m 248.07813,1.12695 -2.14844,5.33594 4.49219,3.78711 -3.10547,7.71484 -5.87695,-0.34765 -2.17383,5.40039 0.51172,0.20703 24.70312,0.83008 2.49805,-6.20313 -18.38672,-16.51758 z m 0.25,0.58594 0.0215,0.01 18.09375,16.25391 -2.26172,5.61719 -24.30859,-0.81641 -0.0215,-0.008 1.88476,-4.68359 5.875,0.3457 3.34961,-8.31445 -4.49219,-3.78711 z m 5.5664,10.90039 -2.4375,6.05469 10.35352,0.60742 z m 0.18555,0.74414 6.4043,5.39063 -8.37696,-0.49219 z"
       id="path36" /></g></g></svg>
